<?xml version="1.0" ?><!DOCTYPE svg  PUBLIC '-//W3C//DTD SVG 1.1//EN'  'http://www.w3.org/Graphics/SVG/1.1/DTD/svg11.dtd'><svg enable-background="new 0 0 512 512" height="512px" id="Layer_1" version="1.1" viewBox="0 0 512 512" width="512px" xml:space="preserve" xmlns="http://www.w3.org/2000/svg" xmlns:xlink="http://www.w3.org/1999/xlink"><g><g><path d="M512,256c0,4.069-0.092,8.107-0.289,12.123c-3.573,76.285-40.688,143.946-96.896,188.531     c-42.338,33.584-95.504,54.068-153.331,55.292c-1.815,0.038-3.643,0.054-5.473,0.054c-1.1,0-2.208-0.008-3.308-0.016     c-59.408-0.754-114.016-21.861-157.146-56.646C37.319,408.369,0,336.462,0,256C0,114.839,114.846,0,256.012,0     c116.546,0,215.158,78.288,245.98,185.058C508.508,207.593,512,231.4,512,256z" fill="#BFD8E5"/><path d="M512,256c0,4.069-0.092,8.107-0.289,12.123c-3.573,76.285-40.688,143.946-96.896,188.531     c-42.338,33.584-95.504,54.068-153.331,55.292c-71.616-71.615-159.969-159.97-159.969-159.97     c-6.3-1.142-11.085-6.646-11.085-13.284V112.788c0-7.457,6.05-13.507,13.504-13.507h310.096c6.639,0,12.15,4.784,13.285,11.088     l74.677,74.688C508.508,207.593,512,231.4,512,256z" opacity="0.16"/><g><g><path d="M318.762,402.885c-12.358-6.077-18.081-16.692-20.338-30.238c-0.008-0.062-0.077-0.123-0.085-0.185       c-0.458-2.773-0.884-5.731-1.088-8.793c-0.265-3.949-0.5-8.084-0.5-12.399v-0.081c0-0.95,0.496-1.942,0.516-2.954h-80.046       c0.05,1.004,0.596,2.097,0.596,3.035v0.03c0,3.738,0,7.562,0,11.085v0.223c0,17.008-3.592,31.17-18.611,40.277h-5.677v6.069       h131.558v-6.069H318.762z" fill="#F0F0F0"/><rect fill="#0D2038" height="10.254" width="131.558" x="193.527" y="398.7"/><path d="M414.035,99.285H103.938c-7.458,0-13.508,6.042-13.508,13.507V338.7c0,7.454,6.05,13.508,13.508,13.508       h310.096c7.465,0,13.512-6.054,13.512-13.508V112.792C427.546,105.327,421.5,99.285,414.035,99.285z" fill="#0E2037"/><path d="M103.938,112.438h310.096c0.196,0,0.354,0.154,0.354,0.354v201.5H103.584v-201.5       C103.584,112.597,103.742,112.438,103.938,112.438z" fill="#F0F1F1"/><path d="M103.938,300.331h310.096c0.196,0,0.354,0.008,0.354,0.026v15.797H103.584v-15.797       C103.584,300.339,103.742,300.331,103.938,300.331z" fill="#BED8E5"/><rect fill="#F0F1E5" height="8.223" width="72.592" x="222.688" y="324.896"/></g><g><rect fill="#EFC849" height="64.766" width="127.438" x="272.535" y="123.573"/><rect fill="#929497" height="171.026" width="3.727" x="260.188" y="120.15"/><rect fill="#F29C1F" height="94.115" width="127.438" x="271.827" y="195.931"/><rect fill="#929497" height="3.724" width="9.108" x="109.535" y="122.723"/><rect fill="#929497" height="3.723" width="9.108" x="109.535" y="140.938"/><rect fill="#929497" height="3.723" width="9.108" x="109.535" y="159.154"/><rect fill="#929497" height="3.724" width="9.108" x="109.535" y="177.369"/><rect fill="#929497" height="3.727" width="9.108" x="109.535" y="195.585"/><rect fill="#929497" height="3.728" width="9.108" x="109.535" y="213.8"/><rect fill="#929497" height="3.723" width="9.108" x="109.535" y="232.02"/><rect fill="#929497" height="3.724" width="9.108" x="109.535" y="250.234"/><rect fill="#929497" height="3.723" width="9.108" x="109.535" y="268.45"/><rect fill="#929497" height="3.724" width="9.108" x="109.535" y="287.677"/><polygon fill="#0D2038" points="132.646,295.262 128.923,289.654 132.65,284.085 135.742,286.158 133.396,289.661        135.746,293.2      "/><polygon fill="#0D2038" points="158.012,295.262 154.908,293.2 157.258,289.661 154.912,286.158 158.008,284.085        161.735,289.654      "/><polygon fill="#0D2038" points="132.646,130.304 128.923,124.7 132.65,119.131 135.742,121.2 133.396,124.708 135.746,128.246             "/><polygon fill="#0D2038" points="158.012,130.304 154.908,128.246 157.258,124.708 154.912,121.2 158.008,119.131        161.735,124.7      "/><rect fill="#0D2038" height="3.724" width="10.119" x="139.893" y="122.723"/><rect fill="#7AB2D4" height="7.446" width="53.635" x="129.773" y="139.077"/><rect fill="#AAC5D4" height="7.446" width="36.431" x="129.773" y="157.292"/><rect fill="#D76959" height="7.446" width="73.874" x="174.3" y="157.292"/><rect fill="#816D62" height="7.45" width="59.708" x="129.773" y="175.508"/><rect fill="#AAC5D4" height="7.45" width="9.108" x="129.773" y="193.723"/><rect fill="#354D5C" height="7.45" width="40.481" x="147.988" y="193.723"/><rect fill="#D76959" height="7.45" width="40.481" x="193.527" y="193.723"/><rect fill="#F29C1F" height="7.45" width="47.562" x="129.773" y="211.938"/><rect fill="#BAC0FF" height="7.445" width="108.281" x="129.773" y="230.158"/><rect fill="#66A86C" height="7.446" width="41.493" x="129.773" y="248.373"/><rect fill="#EC3611" height="7.449" width="93.104" x="129.773" y="266.589"/><rect fill="#0D2038" height="9.105" transform="matrix(0.7071 0.7071 -0.7071 0.7071 246.5846 -18.2542)" width="3.721" x="143.467" y="283.974"/></g><path d="M298.481,372.523h-0.031l-80.6-10.108c0.031-3.522-0.035-7.377-0.035-11.115v-0.03h79.392      c-0.062,4.315,0.008,8.484,0.273,12.431C297.681,366.754,298.004,369.484,298.481,372.523z" opacity="0.2"/></g></g></g></svg>